<?xml version="1.0" encoding="utf-8"?>
<!-- Generator: Adobe Illustrator 25.1.0, SVG Export Plug-In . SVG Version: 6.00 Build 0)  -->
<svg version="1.1" xmlns="http://www.w3.org/2000/svg" xmlns:xlink="http://www.w3.org/1999/xlink" x="0px" y="0px"
	 viewBox="0 0 621.3 640" style="enable-background:new 0 0 621.3 640;" xml:space="preserve">
<style type="text/css">
	.st0{fill:none;stroke:#000000;stroke-width:8;stroke-miterlimit:10;}
	.st1{fill:none;stroke:#000000;stroke-width:5;stroke-linejoin:round;stroke-miterlimit:10;}
	.st2{fill:none;stroke:#000000;stroke-linejoin:round;stroke-miterlimit:10;}
	.st3{fill:none;stroke:#000000;stroke-width:6;stroke-linecap:round;stroke-miterlimit:10;}
	.st4{fill:none;stroke:#000000;stroke-miterlimit:10;}
	.st5{fill:#E4B7BC;}
	.st6{stroke:#000000;stroke-miterlimit:10;}
	.st7{fill:#FFFFFF;stroke:#000000;stroke-width:5;stroke-linejoin:round;stroke-miterlimit:10;}
	.st8{opacity:0.949;}
	.st9{fill:none;stroke:#000000;stroke-width:3;stroke-linejoin:round;stroke-miterlimit:10;}
	.st10{fill:none;stroke:#000000;stroke-linecap:round;stroke-linejoin:round;stroke-miterlimit:10;}
	.st11{fill:#0A0A0A;}
	.st12{stroke:#000000;stroke-linecap:round;stroke-linejoin:round;stroke-miterlimit:10;}
	.st13{fill:none;stroke:#000000;stroke-width:4;stroke-linecap:round;stroke-linejoin:round;stroke-miterlimit:10;}
	.st14{fill:none;stroke:#000000;stroke-width:5;stroke-linecap:round;stroke-linejoin:round;stroke-miterlimit:10;}
	.st15{fill:none;}
	.st16{fill:#50E3C2;}
	.st17{fill:none;stroke:#000000;stroke-width:6;stroke-linejoin:round;stroke-miterlimit:10;}
	.st18{fill:none;stroke:#000000;stroke-width:8;stroke-linejoin:round;stroke-miterlimit:10;}
</style>
<g id="Ebene_2">
</g>
<g id="Ebene_1">
</g>
<g id="Logo">
</g>
<g id="Logo_Test">
	<g>
		<path class="st18" d="M479.2,259.3c0,0-0.2,34.7-55,58.1c-26.4,11.3-57.1,19.4-85.4,17.3c-18.5-1.4-34.3-8-49.7-17.2
			c0-0.8-9.8-37.1-11.6-43.5L387,297l78.4-72.8l3.5-0.9L479.2,259.3z"/>
		<polygon class="st18" points="531.3,163 465.4,224.2 387,297 277.4,273.8 240.6,266 224.4,262.6 195.4,256.5 337.8,123.2 		"/>
		<path class="st16" d="M372,196.3c-1.6-5.7-9.3-8.5-17.1-6.2c-6.9,2-11.7,7.1-11.7,12.2c-67.9,33.9-117,58.4-117.9,58.8
			c-0.1,0-0.6,0.3-0.9,0.8c-0.2,0.4-0.2,0.8,0,1.2c3.5,12.5,7,25.1,10.4,37.6c1.2,23,2.4,46,3.6,69c7.2,8.2,18.7,11,28.7,7.2
			c9.1-3.5,15.5-12.1,16.3-22c-11.7-19.4-23.4-38.7-35.1-58.1c-2.6-9.6-5.2-19.2-7.8-28.8c0-0.2-0.1-1,0.4-1.8
			c0.5-0.8,1.2-1.1,1.4-1.2c35.8-18.2,71.6-36.4,107.5-54.6c1.9,0.6,6.1,1.5,10.9,0.1C368.5,208.3,373.6,201.9,372,196.3z
			 M274,354.9c-0.3,6.7-4.8,12.4-11,13.9c-5.2,1.3-10.9-0.6-14.6-4.9c-1.4-18-2.8-35.9-4.2-53.9C254.1,325,264,340,274,354.9z"/>
		<g>
			<g>
				<path d="M371.7,7.4c-130.6,0-236.4,105.8-236.4,236.4c0,60.4,22.7,115.6,60,157.4L26.4,569.3c0,0-33.9,36.9-15,52
					c18.9,15.1,41.5-6,51.2-12.7c8.6-5.9,142.1-138.8,174-170.7c38.3,26.7,84.8,42.3,135,42.3c130.6,0,236.4-105.8,236.4-236.4
					C608.1,113.3,502.2,7.4,371.7,7.4z M371.6,450.2c-114.4,0-207.1-92.7-207.1-207.1C164.5,128.7,257.2,36,371.6,36
					c114.4,0,207.1,92.7,207.1,207.1C578.7,357.5,486,450.2,371.6,450.2z"/>
			</g>
		</g>
	</g>
</g>
</svg>
