<svg viewBox="0 0 621.3 640" xmlns="http://www.w3.org/2000/svg"><style></style><path fill="none" d="M107.7 401.2h452.8V478H107.7z"/><path d="M164.8 421.9h-12.6c-.2-1.6-.7-3.1-1.4-4.4s-1.6-2.4-2.7-3.3-2.4-1.6-3.8-2.1-3-.7-4.7-.7c-3 0-5.7.8-8 2.3s-4 3.7-5.3 6.6c-1.2 2.9-1.9 6.3-1.9 10.4 0 4.2.6 7.7 1.9 10.6s3 5 5.3 6.5 4.9 2.2 7.9 2.2c1.7 0 3.2-.2 4.6-.7 1.4-.4 2.7-1.1 3.8-1.9s2-1.9 2.8-3.1c.7-1.2 1.3-2.6 1.5-4.2l12.6.1c-.3 2.7-1.1 5.3-2.4 7.8s-3 4.7-5.2 6.7-4.8 3.5-7.8 4.7-6.4 1.7-10.2 1.7c-5.3 0-9.9-1.2-14.1-3.6-4.1-2.4-7.4-5.8-9.8-10.3s-3.6-10-3.6-16.4 1.2-11.9 3.6-16.4 5.7-7.9 9.8-10.3 8.8-3.6 14-3.6c3.4 0 6.6.5 9.5 1.4 2.9 1 5.5 2.4 7.8 4.2s4.1 4.1 5.5 6.7c1.6 2.6 2.5 5.6 2.9 9.1zM193.5 461c-4.5 0-8.3-1-11.6-2.9-3.2-1.9-5.8-4.6-7.5-8-1.8-3.4-2.6-7.4-2.6-11.9 0-4.6.9-8.6 2.6-12 1.8-3.4 4.3-6.1 7.5-8 3.3-1.9 7.1-2.9 11.6-2.9s8.3 1 11.6 2.9 5.8 4.6 7.5 8c1.8 3.4 2.6 7.4 2.6 12 0 4.5-.9 8.5-2.6 11.9-1.8 3.4-4.3 6.1-7.5 8-3.2 2-7.1 2.9-11.6 2.9zm.1-9.5c2 0 3.7-.6 5.1-1.7s2.4-2.7 3.1-4.8 1.1-4.3 1.1-6.9-.4-4.9-1.1-6.9-1.7-3.6-3.1-4.8-3.1-1.8-5.1-1.8c-2.1 0-3.8.6-5.2 1.8s-2.4 2.8-3.1 4.8-1 4.3-1 6.9.3 4.9 1 6.9 1.7 3.6 3.1 4.8c1.4 1.1 3.1 1.7 5.2 1.7zM251.6 441.3V416h12.3v44.2h-11.8v-8h-.5c-1 2.6-2.7 4.7-5 6.2-2.3 1.6-5.1 2.4-8.4 2.4-3 0-5.6-.7-7.8-2s-4-3.2-5.2-5.7-1.9-5.4-1.9-8.9V416h12.3v25.9c0 2.6.7 4.7 2.1 6.2s3.2 2.3 5.6 2.3c1.5 0 2.9-.3 4.1-1s2.3-1.7 3.1-3c.7-1.4 1.1-3.1 1.1-5.1zM273.6 460.1V416h11.9v7.7h.5c.8-2.7 2.2-4.8 4.1-6.2s4.1-2.1 6.6-2.1c.6 0 1.3 0 2 .1s1.3.2 1.9.3v10.9c-.6-.2-1.4-.3-2.4-.5-1-.1-1.9-.2-2.8-.2-1.8 0-3.4.4-4.8 1.2s-2.5 1.9-3.3 3.2c-.8 1.4-1.2 3-1.2 4.8v25h-12.5zM343.5 428.6l-11.2.7c-.2-1-.6-1.8-1.2-2.6s-1.5-1.4-2.5-1.9-2.2-.7-3.7-.7c-1.9 0-3.5.4-4.8 1.2s-2 1.9-2 3.2c0 1.1.4 1.9 1.3 2.7.8.7 2.3 1.3 4.3 1.8l8 1.6c4.3.9 7.5 2.3 9.6 4.3s3.2 4.5 3.2 7.7c0 2.9-.8 5.4-2.5 7.6s-4 3.9-7 5.1c-2.9 1.2-6.3 1.8-10.2 1.8-5.8 0-10.5-1.2-14-3.7-3.5-2.4-5.5-5.8-6.1-10l12.1-.6c.4 1.8 1.2 3.1 2.6 4.1 1.4.9 3.2 1.4 5.4 1.4 2.1 0 3.9-.4 5.2-1.3s2-1.9 2-3.2c0-1.1-.5-2-1.4-2.7s-2.3-1.3-4.3-1.7l-7.7-1.5c-4.3-.9-7.5-2.4-9.6-4.5s-3.1-4.8-3.1-8.1c0-2.8.8-5.3 2.3-7.3s3.7-3.6 6.5-4.7 6.1-1.7 9.9-1.7c5.6 0 10 1.2 13.2 3.5 3.3 2.2 5.2 5.4 5.7 9.5zM372.4 461c-4.5 0-8.5-.9-11.7-2.8-3.3-1.8-5.8-4.5-7.6-7.9s-2.6-7.4-2.6-12.1c0-4.5.9-8.5 2.6-12 1.8-3.4 4.3-6.1 7.5-8s7-2.9 11.3-2.9c2.9 0 5.6.5 8.2 1.4 2.5.9 4.7 2.3 6.6 4.2s3.4 4.2 4.4 7c1.1 2.8 1.6 6.1 1.6 9.9v3.4h-37.3v-7.6h25.8c0-1.8-.4-3.3-1.2-4.7s-1.8-2.4-3.2-3.2-2.9-1.2-4.7-1.2c-1.9 0-3.5.4-4.9 1.3s-2.5 2-3.4 3.4-1.2 3-1.2 4.8v7.2c0 2.2.4 4.1 1.2 5.7s2 2.8 3.5 3.7 3.3 1.3 5.3 1.3c1.4 0 2.6-.2 3.7-.6s2.1-1 2.9-1.7c.8-.8 1.4-1.7 1.8-2.8l11.3.7c-.6 2.7-1.8 5.1-3.5 7.1-1.8 2-4.1 3.6-6.8 4.7-2.8 1.1-6 1.7-9.6 1.7zM400.9 460.1v-58.9h12.5v24.3h25.3v-24.3H451v58.9h-12.4v-24.3h-25.3v24.3h-12.4zM489.4 441.3V416h12.3v44.2h-11.8v-8h-.5c-1 2.6-2.7 4.7-5 6.2-2.3 1.6-5.1 2.4-8.4 2.4-3 0-5.6-.7-7.8-2s-4-3.2-5.2-5.7-1.9-5.4-1.9-8.9V416h12.3v25.9c0 2.6.7 4.7 2.1 6.2s3.2 2.3 5.6 2.3c1.5 0 2.9-.3 4.1-1s2.3-1.7 3.1-3c.7-1.4 1.1-3.1 1.1-5.1zM511.7 460.1v-58.9H524v22.1h.4c.5-1.2 1.3-2.4 2.3-3.6s2.4-2.3 4-3.1c1.7-.8 3.7-1.3 6.2-1.3 3.2 0 6.2.8 8.9 2.5s4.9 4.2 6.5 7.6 2.4 7.6 2.4 12.6c0 4.9-.8 9.1-2.4 12.5s-3.7 5.9-6.4 7.7c-2.7 1.7-5.7 2.6-9.1 2.6-2.4 0-4.4-.4-6.1-1.2s-3-1.8-4.1-3-1.9-2.4-2.4-3.6h-.5v7.1h-12zm12-22c0 2.6.4 4.9 1.1 6.9s1.8 3.5 3.2 4.6 3.1 1.6 5 1.6c2 0 3.7-.6 5.1-1.7s2.4-2.6 3.2-4.6c.7-2 1.1-4.2 1.1-6.8 0-2.5-.4-4.8-1.1-6.7s-1.8-3.5-3.1-4.5c-1.4-1.1-3.1-1.6-5.1-1.6s-3.7.5-5 1.6-2.4 2.6-3.1 4.5c-1 1.7-1.3 4-1.3 6.7z"/><path d="M229.7 98.7c-77.8 0-140.8 63.1-140.8 140.8 0 36 13.5 68.8 35.8 93.8L24.1 433.4s-20.2 22-8.9 31c11.2 9 24.7-3.6 30.5-7.6 5.1-3.5 84.6-82.7 103.7-101.7 22.8 15.9 50.5 25.2 80.4 25.2 77.8 0 140.8-63.1 140.8-140.8 0-77.8-63.1-140.8-140.9-140.8zm0 263.7c-68.1 0-123.4-55.2-123.4-123.4 0-68.1 55.2-123.4 123.4-123.4 68.1 0 123.4 55.2 123.4 123.4s-55.2 123.4-123.4 123.4z"/><path d="M293.8 248.7s-.1 20.7-32.8 34.6c-15.7 6.7-34 11.6-50.9 10.3-11-.8-20.5-4.8-29.6-10.3 0-.5-5.9-22.1-6.9-25.9l65.3 13.8 46.7-43.4 2.1-.5 6.1 21.4z" fill="none" stroke="#000" stroke-width="5" stroke-linejoin="round" stroke-miterlimit="10"/><path fill="none" stroke="#000" stroke-width="6" stroke-linejoin="round" stroke-miterlimit="10" d="M324.8 191.3l-39.2 36.5-46.7 43.3-65.3-13.7-21.9-4.7-9.7-2-17.3-3.7 84.9-79.4z"/><path d="M229.9 211.2c-1-3.4-5.5-5-10.2-3.7-4.1 1.2-7 4.2-7 7.3-40.5 20.2-69.7 34.8-70.3 35-.1 0-.4.2-.5.5-.1.2-.1.5 0 .7 2.1 7.5 4.1 15 6.2 22.4.7 13.7 1.4 27.4 2.2 41.1 4.3 4.9 11.2 6.6 17.1 4.3 5.4-2.1 9.2-7.2 9.7-13.1-7-11.5-13.9-23.1-20.9-34.6-1.5-5.7-3.1-11.4-4.6-17.1 0-.1-.1-.6.2-1.1s.7-.7.8-.7c21.3-10.8 42.7-21.7 64-32.5 1.2.4 3.6.9 6.5.1 4.7-1.5 7.8-5.3 6.8-8.6zm-58.4 94.5c-.2 4-2.9 7.4-6.5 8.3-3.1.8-6.5-.4-8.7-2.9-.8-10.7-1.7-21.4-2.5-32.1l17.7 26.7z" fill="#50e3c2"/></svg>