<svg viewBox="0 0 621.3 640" xmlns="http://www.w3.org/2000/svg"><style>.prefix__st18{fill:none;stroke:#000;stroke-width:8;stroke-linejoin:round;stroke-miterlimit:10}</style><path class="prefix__st18" d="M479.2 259.3s-.2 34.7-55 58.1c-26.4 11.3-57.1 19.4-85.4 17.3-18.5-1.4-34.3-8-49.7-17.2 0-.8-9.8-37.1-11.6-43.5L387 297l78.4-72.8 3.5-.9 10.3 36z"/><path class="prefix__st18" d="M531.3 163l-65.9 61.2L387 297l-109.6-23.2-36.8-7.8-16.2-3.4-29-6.1 142.4-133.3z"/><path d="M372 196.3c-1.6-5.7-9.3-8.5-17.1-6.2-6.9 2-11.7 7.1-11.7 12.2-67.9 33.9-117 58.4-117.9 58.8-.1 0-.6.3-.9.8-.2.4-.2.8 0 1.2 3.5 12.5 7 25.1 10.4 37.6l3.6 69c7.2 8.2 18.7 11 28.7 7.2 9.1-3.5 15.5-12.1 16.3-22-11.7-19.4-23.4-38.7-35.1-58.1l-7.8-28.8c0-.2-.1-1 .4-1.8s1.2-1.1 1.4-1.2c35.8-18.2 71.6-36.4 107.5-54.6 1.9.6 6.1 1.5 10.9.1 7.8-2.2 12.9-8.6 11.3-14.2zm-98 158.6c-.3 6.7-4.8 12.4-11 13.9-5.2 1.3-10.9-.6-14.6-4.9-1.4-18-2.8-35.9-4.2-53.9 9.9 15 19.8 30 29.8 44.9z" fill="#50e3c2"/><path d="M371.7 7.4c-130.6 0-236.4 105.8-236.4 236.4 0 60.4 22.7 115.6 60 157.4L26.4 569.3s-33.9 36.9-15 52 41.5-6 51.2-12.7c8.6-5.9 142.1-138.8 174-170.7 38.3 26.7 84.8 42.3 135 42.3 130.6 0 236.4-105.8 236.4-236.4.1-130.5-105.8-236.4-236.3-236.4zm-.1 442.8c-114.4 0-207.1-92.7-207.1-207.1S257.2 36 371.6 36s207.1 92.7 207.1 207.1S486 450.2 371.6 450.2z"/></svg>