<svg viewBox="0 0 621.3 640" xmlns="http://www.w3.org/2000/svg"><style>.prefix__st18{fill:none;stroke:#000;stroke-width:8;stroke-linejoin:round;stroke-miterlimit:10}</style><path class="prefix__st18" d="M478.5 261.1s-.2 33.6-54.8 56.3c-26.3 11-56.8 18.8-85.1 16.7-18.5-1.4-34.2-7.8-49.5-16.7 0-.8-9.8-36-11.5-42.2l109.1 22.4 78-70.5 3.4-.9 10.4 34.9z"/><path class="prefix__st18" d="M530.4 167.7l-65.7 59.4-78 70.5-109.1-22.4-36.7-7.6-16.2-3.3-28.8-5.9 141.8-129.2z"/><path d="M371.7 200c-1.6-5.5-9.2-8.2-17.1-6-6.9 1.9-11.6 6.9-11.6 11.8-67.7 32.9-116.5 56.6-117.5 57-.1 0-.6.3-.9.8-.2.3-.1.7 0 1.1 3.5 12.2 6.9 24.3 10.4 36.5l3.6 66.9c7.2 7.9 18.6 10.7 28.6 7 9.1-3.4 15.4-11.7 16.3-21.4-11.7-18.8-23.3-37.5-35-56.3l-7.8-27.9c0-.2-.1-1 .4-1.8s1.2-1.1 1.4-1.2c35.7-17.6 71.4-35.3 107-52.9 1.9.6 6.1 1.4 10.8.1 7.9-2 13-8.2 11.4-13.7zm-97.6 153.7c-.3 6.5-4.8 12-10.9 13.5-5.2 1.3-10.9-.6-14.5-4.7l-4.2-52.2c9.8 14.5 19.7 29 29.6 43.4z" fill="#50e3c2"/><path d="M371.4 17C241.4 17 136 119.6 136 246.1c0 58.6 22.6 112 59.8 152.5L27.5 561.5s-33.8 35.7-14.9 50.4c18.8 14.6 41.3-5.8 51-12.4 8.6-5.8 141.5-134.5 173.3-165.4 38.1 25.9 84.5 41 134.5 41 130 0 235.5-102.6 235.5-229.1 0-126.4-105.4-229-235.5-229zm0 429.1c-113.9 0-206.3-89.9-206.3-200.7S257.5 44.7 371.4 44.7s206.3 89.9 206.3 200.7c-.1 110.8-92.4 200.7-206.3 200.7z"/></svg>