<svg xmlns="http://www.w3.org/2000/svg" viewBox="0 0 621.3 640"><style>.prefix__st18{fill:none;stroke:#000;stroke-width:8;stroke-linejoin:round;stroke-miterlimit:10}</style><g id="prefix__Logo_Test"><path fill="none" d="M107.7 401.2h452.8V478H107.7z"/><path d="M164 421.1h-10.8c-.3-1.8-.9-3.3-1.7-4.7-.8-1.4-1.9-2.5-3.1-3.5s-2.6-1.7-4.2-2.2c-1.6-.5-3.2-.7-5-.7-3.2 0-6 .8-8.5 2.4-2.5 1.6-4.4 3.9-5.8 7-1.4 3.1-2.1 6.8-2.1 11.3 0 4.5.7 8.3 2.1 11.4 1.4 3.1 3.3 5.4 5.8 7s5.3 2.3 8.5 2.3c1.8 0 3.4-.2 5-.7 1.5-.5 2.9-1.2 4.2-2.1 1.2-.9 2.3-2.1 3.1-3.4.9-1.3 1.4-2.9 1.8-4.6l10.8.1c-.4 2.8-1.3 5.4-2.6 7.9s-3.1 4.6-5.2 6.5c-2.1 1.9-4.7 3.3-7.5 4.4-2.9 1-6.1 1.6-9.6 1.6-5.2 0-9.8-1.2-13.9-3.6-4.1-2.4-7.3-5.9-9.6-10.4s-3.5-10-3.5-16.3c0-6.3 1.2-11.8 3.5-16.3 2.4-4.5 5.6-8 9.6-10.4 4.1-2.4 8.7-3.6 13.8-3.6 3.3 0 6.3.5 9.1 1.4 2.8.9 5.3 2.3 7.5 4 2.2 1.8 4 3.9 5.5 6.5 1.4 2.5 2.3 5.4 2.8 8.7zM192.6 461c-4.3 0-8.1-.9-11.2-2.8s-5.6-4.6-7.3-8-2.6-7.4-2.6-12 .9-8.6 2.6-12 4.2-6.1 7.3-8 6.9-2.8 11.2-2.8 8.1.9 11.2 2.8 5.6 4.6 7.3 8 2.6 7.4 2.6 12-.9 8.6-2.6 12-4.2 6.1-7.3 8-6.9 2.8-11.2 2.8zm.1-8.3c2.3 0 4.3-.6 5.9-1.9 1.6-1.3 2.7-3 3.5-5.2.8-2.2 1.2-4.6 1.2-7.3s-.4-5.2-1.2-7.3c-.8-2.2-2-3.9-3.5-5.2-1.6-1.3-3.5-2-5.9-2-2.4 0-4.4.7-6 2-1.6 1.3-2.8 3.1-3.5 5.2-.8 2.2-1.2 4.6-1.2 7.3s.4 5.1 1.2 7.3c.8 2.2 2 3.9 3.5 5.2 1.6 1.2 3.6 1.9 6 1.9zM250.7 441.6V416h10.4v44.2H251v-7.9h-.5c-1 2.5-2.6 4.5-4.9 6.1s-5.1 2.4-8.4 2.4c-2.9 0-5.5-.6-7.7-1.9-2.2-1.3-3.9-3.2-5.2-5.7-1.2-2.5-1.9-5.5-1.9-9V416H233v26.5c0 2.8.8 5 2.3 6.7 1.5 1.6 3.5 2.5 6 2.5 1.5 0 3-.4 4.5-1.1 1.4-.7 2.6-1.9 3.6-3.4.9-1.5 1.3-3.4 1.3-5.6zM271.8 460.1V416h10.1v7.4h.5c.8-2.5 2.2-4.5 4.2-5.9 2-1.4 4.2-2.1 6.7-2.1.6 0 1.2 0 1.9.1.7 0 1.3.1 1.8.2v9.6c-.4-.2-1.1-.3-2.1-.4s-1.9-.2-2.7-.2c-1.9 0-3.6.4-5.1 1.2-1.5.8-2.7 1.9-3.6 3.4-.9 1.4-1.3 3.1-1.3 5v26h-10.4zM338.9 427.6l-9.5 1c-.3-1-.7-1.9-1.4-2.7-.7-.8-1.5-1.5-2.7-2s-2.5-.8-4.1-.8c-2.2 0-4 .5-5.5 1.4s-2.2 2.2-2.2 3.7c0 1.3.5 2.3 1.4 3.1s2.6 1.5 4.8 2l7.5 1.6c4.2.9 7.3 2.3 9.3 4.3 2 2 3.1 4.5 3.1 7.7 0 2.8-.8 5.2-2.4 7.3-1.6 2.1-3.8 3.8-6.7 5-2.8 1.2-6.1 1.8-9.8 1.8-5.4 0-9.8-1.1-13.1-3.4-3.3-2.3-5.3-5.4-5.9-9.5l10.2-1c.5 2 1.4 3.5 2.9 4.5s3.4 1.5 5.8 1.5c2.5 0 4.5-.5 6-1.5s2.3-2.3 2.3-3.8c0-1.3-.5-2.3-1.5-3.1-1-.8-2.5-1.5-4.5-1.9l-7.5-1.6c-4.2-.9-7.4-2.4-9.4-4.5s-3-4.8-3-8c0-2.7.7-5.1 2.2-7.1 1.5-2 3.6-3.6 6.3-4.7 2.7-1.1 5.8-1.7 9.3-1.7 5.2 0 9.3 1.1 12.2 3.3 3.3 2.4 5.2 5.4 5.9 9.1zM368 461c-4.4 0-8.3-.9-11.5-2.8-3.2-1.8-5.7-4.5-7.4-7.9-1.7-3.4-2.6-7.4-2.6-12 0-4.5.9-8.5 2.6-12 1.7-3.4 4.2-6.1 7.3-8.1 3.1-1.9 6.8-2.9 11-2.9 2.7 0 5.3.4 7.7 1.3 2.4.9 4.6 2.2 6.4 4 1.9 1.8 3.3 4.1 4.4 6.9 1.1 2.8 1.6 6.2 1.6 10v3.2h-36.2v-7h26.2c0-2-.5-3.8-1.3-5.3-.8-1.6-2-2.8-3.5-3.7-1.5-.9-3.3-1.4-5.2-1.4-2.1 0-4 .5-5.6 1.5-1.6 1-2.9 2.4-3.8 4-.9 1.7-1.3 3.5-1.4 5.5v6.1c0 2.6.5 4.8 1.4 6.6s2.3 3.2 3.9 4.2c1.7 1 3.7 1.5 5.9 1.5 1.5 0 2.9-.2 4.1-.6 1.2-.4 2.3-1.1 3.2-1.9s1.6-1.9 2-3.1l9.7 1.1c-.6 2.6-1.8 4.8-3.5 6.7-1.7 1.9-3.9 3.4-6.6 4.4s-5.4 1.7-8.8 1.7zM396.9 460.1v-58.9h10.7v24.9h27.3v-24.9h10.7v58.9h-10.7v-25h-27.3v25h-10.7zM484.9 441.6V416h10.4v44.2h-10.1v-7.9h-.5c-1 2.5-2.6 4.5-4.9 6.1s-5.1 2.4-8.4 2.4c-2.9 0-5.5-.6-7.7-1.9-2.2-1.3-3.9-3.2-5.2-5.7-1.2-2.5-1.9-5.5-1.9-9V416H467v26.5c0 2.8.8 5 2.3 6.7 1.5 1.6 3.5 2.5 6 2.5 1.5 0 3-.4 4.5-1.1 1.4-.7 2.6-1.9 3.6-3.4s1.5-3.4 1.5-5.6zM506.4 460.1v-58.9h10.4v22h.4c.5-1.1 1.3-2.2 2.3-3.4 1-1.2 2.3-2.3 4-3.1 1.7-.9 3.8-1.3 6.4-1.3 3.4 0 6.5.9 9.2 2.6 2.8 1.7 4.9 4.3 6.6 7.7 1.6 3.4 2.4 7.5 2.4 12.4s-.8 9-2.4 12.4c-1.6 3.4-3.8 6-6.5 7.8s-5.8 2.7-9.3 2.7c-2.5 0-4.6-.4-6.3-1.3-1.7-.8-3-1.9-4-3.1-1-1.2-1.8-2.3-2.3-3.4h-.6v7h-10.3zm10.3-22c0 2.9.4 5.4 1.2 7.5.8 2.1 2 3.8 3.5 5 1.5 1.2 3.4 1.8 5.6 1.8 2.3 0 4.2-.6 5.8-1.9 1.6-1.2 2.7-2.9 3.5-5.1.8-2.2 1.2-4.6 1.2-7.4 0-2.7-.4-5.2-1.2-7.3-.8-2.1-2-3.8-3.5-5-1.6-1.2-3.5-1.8-5.8-1.8-2.2 0-4.1.6-5.7 1.8-1.6 1.2-2.7 2.8-3.5 4.9-.7 2.1-1.1 4.6-1.1 7.5z"/><g><path class="prefix__st18" d="M285.9 270.9s-.1 19.6-31.9 32.7c-15.3 6.4-33.1 11-49.5 9.7-10.7-.8-19.9-4.5-28.8-9.7 0-.5-5.7-20.9-6.7-24.6l63.5 13.1 45.4-41.1 2-.5 6 20.4z"/><path class="prefix__st18" d="M316.1 216.6l-38.2 34.5-45.4 41.1-63.5-13.1-21.4-4.4-9.4-1.9-16.8-3.4 82.5-75.2z"/><path d="M223.8 235.4c-.9-3.2-5.4-4.8-9.9-3.5-4 1.1-6.8 4-6.8 6.9-39.4 19.1-67.8 32.9-68.4 33.2-.1 0-.4.1-.5.4-.1.2-.1.4 0 .7 2 7.1 4 14.2 6.1 21.2.7 13 1.4 26 2.1 38.9 4.2 4.6 10.9 6.2 16.6 4.1 5.3-2 9-6.8 9.5-12.4-6.8-10.9-13.6-21.8-20.4-32.8l-4.5-16.2c0-.1-.1-.6.2-1 .3-.5.7-.6.8-.7 20.8-10.3 41.5-20.5 62.3-30.8 1.1.4 3.5.8 6.3.1 4.5-1.3 7.5-4.9 6.6-8.1zm-56.9 89.4c-.1 3.8-2.8 7-6.4 7.9-3 .7-6.3-.3-8.5-2.7-.8-10.1-1.6-20.3-2.5-30.4 5.9 8.4 11.7 16.8 17.4 25.2z" fill="#50e3c2"/><path d="M223.6 128.9c-75.7 0-137 59.7-137 133.3 0 34.1 13.1 65.2 34.8 88.8l-97.9 94.8s-19.7 20.8-8.7 29.3c10.9 8.5 24.1-3.4 29.7-7.2 5-3.4 82.4-78.3 100.9-96.2 22.2 15 49.2 23.9 78.3 23.9 75.7 0 137-59.7 137-133.3-.1-73.7-61.4-133.4-137.1-133.4zm-.1 249.7c-66.3 0-120.1-52.3-120.1-116.8S157.2 145 223.5 145s120 52.3 120 116.8c.1 64.5-53.6 116.8-120 116.8z"/></g></g></svg>